<svg id="visual" viewBox="0 0 900 600" width="900" height="600" xmlns="http://www.w3.org/2000/svg" xmlns:xlink="http://www.w3.org/1999/xlink" version="1.1"><g stroke-width="1" stroke-linejoin="bevel"><path d="M495.9 264L508.9 268L547.7 162Z" fill="#00101c" stroke="#00101c"></path><path d="M502.9 399L543.7 289L508.9 268Z" fill="#94456e" stroke="#94456e"></path><path d="M508.9 268L602.7 261L547.7 162Z" fill="#d55f65" stroke="#d55f65"></path><path d="M543.7 289L602.7 261L508.9 268Z" fill="#eb7459" stroke="#eb7459"></path><path d="M547.7 162L412.1 163L495.9 264Z" fill="#6f3d69" stroke="#6f3d69"></path><path d="M508.9 104L461.9 112L547.7 162Z" fill="#2b2a49" stroke="#2b2a49"></path><path d="M412.1 163L402.1 219L495.9 264Z" fill="#121e33" stroke="#121e33"></path><path d="M541.7 410L604.7 359L543.7 289Z" fill="#2b2a49" stroke="#2b2a49"></path><path d="M461.9 112L412.1 163L547.7 162Z" fill="#4b355c" stroke="#4b355c"></path><path d="M602.7 261L665.5 181L547.7 162Z" fill="#4b355c" stroke="#4b355c"></path><path d="M547.7 162L610.7 87L508.9 104Z" fill="#6f3d69" stroke="#6f3d69"></path><path d="M665.5 181L610.7 87L547.7 162Z" fill="#fcaf3c" stroke="#fcaf3c"></path><path d="M602.7 261L681.5 214L665.5 181Z" fill="#94456e" stroke="#94456e"></path><path d="M425.1 0L398.1 99L461.9 112Z" fill="#d55f65" stroke="#d55f65"></path><path d="M461.9 112L398.1 99L412.1 163Z" fill="#b74f6c" stroke="#b74f6c"></path><path d="M347.3 140L352.3 231L402.1 219Z" fill="#d55f65" stroke="#d55f65"></path><path d="M511.9 0L461.9 112L508.9 104Z" fill="#121e33" stroke="#121e33"></path><path d="M347.3 140L402.1 219L412.1 163Z" fill="#94456e" stroke="#94456e"></path><path d="M402.1 219L381.1 336L495.9 264Z" fill="#94456e" stroke="#94456e"></path><path d="M502.9 399L508.9 268L495.9 264Z" fill="#00101c" stroke="#00101c"></path><path d="M543.7 289L604.7 359L602.7 261Z" fill="#b74f6c" stroke="#b74f6c"></path><path d="M602.7 261L692.5 338L681.5 214Z" fill="#4b355c" stroke="#4b355c"></path><path d="M352.3 231L381.1 336L402.1 219Z" fill="#4b355c" stroke="#4b355c"></path><path d="M398.1 99L347.3 140L412.1 163Z" fill="#00101c" stroke="#00101c"></path><path d="M381.1 336L502.9 399L495.9 264Z" fill="#4b355c" stroke="#4b355c"></path><path d="M733.4 100L635.5 57L610.7 87Z" fill="#94456e" stroke="#94456e"></path><path d="M539.7 0L511.9 0L508.9 104Z" fill="#4b355c" stroke="#4b355c"></path><path d="M733.4 100L610.7 87L665.5 181Z" fill="#4b355c" stroke="#4b355c"></path><path d="M502.9 399L541.7 410L543.7 289Z" fill="#94456e" stroke="#94456e"></path><path d="M720.4 197L718.4 180L681.5 214Z" fill="#00101c" stroke="#00101c"></path><path d="M681.5 214L718.4 180L665.5 181Z" fill="#b74f6c" stroke="#b74f6c"></path><path d="M742.4 322L720.4 197L681.5 214Z" fill="#00101c" stroke="#00101c"></path><path d="M539.7 0L508.9 104L610.7 87Z" fill="#00101c" stroke="#00101c"></path><path d="M398.1 99L315.3 101L347.3 140Z" fill="#b74f6c" stroke="#b74f6c"></path><path d="M619.5 0L539.7 0L610.7 87Z" fill="#6f3d69" stroke="#6f3d69"></path><path d="M619.5 405L692.5 338L604.7 359Z" fill="#121e33" stroke="#121e33"></path><path d="M604.7 359L692.5 338L602.7 261Z" fill="#b74f6c" stroke="#b74f6c"></path><path d="M541.7 410L619.5 405L604.7 359Z" fill="#2b2a49" stroke="#2b2a49"></path><path d="M381.1 336L409.1 411L502.9 399Z" fill="#2b2a49" stroke="#2b2a49"></path><path d="M502.9 399L499.9 458L541.7 410Z" fill="#00101c" stroke="#00101c"></path><path d="M511.9 0L425.1 0L461.9 112Z" fill="#b74f6c" stroke="#b74f6c"></path><path d="M259.5 196L306.3 303L352.3 231Z" fill="#eb7459" stroke="#eb7459"></path><path d="M352.3 231L306.3 303L381.1 336Z" fill="#2b2a49" stroke="#2b2a49"></path><path d="M381.1 336L353.3 415L409.1 411Z" fill="#94456e" stroke="#94456e"></path><path d="M325.3 0L315.3 101L398.1 99Z" fill="#00101c" stroke="#00101c"></path><path d="M347.3 140L259.5 196L352.3 231Z" fill="#121e33" stroke="#121e33"></path><path d="M765.4 0L619.5 0L635.5 57Z" fill="#6f3d69" stroke="#6f3d69"></path><path d="M635.5 57L619.5 0L610.7 87Z" fill="#b74f6c" stroke="#b74f6c"></path><path d="M783.2 97L733.4 100L718.4 180Z" fill="#d55f65" stroke="#d55f65"></path><path d="M718.4 180L733.4 100L665.5 181Z" fill="#eb7459" stroke="#eb7459"></path><path d="M306.3 303L332.3 365L381.1 336Z" fill="#2b2a49" stroke="#2b2a49"></path><path d="M409.1 411L499.9 458L502.9 399Z" fill="#d55f65" stroke="#d55f65"></path><path d="M541.7 410L621.5 471L619.5 405Z" fill="#6f3d69" stroke="#6f3d69"></path><path d="M721.4 403L742.4 322L692.5 338Z" fill="#00101c" stroke="#00101c"></path><path d="M692.5 338L742.4 322L681.5 214Z" fill="#eb7459" stroke="#eb7459"></path><path d="M720.4 197L788.2 218L718.4 180Z" fill="#fcaf3c" stroke="#fcaf3c"></path><path d="M315.3 101L259.5 196L347.3 140Z" fill="#00101c" stroke="#00101c"></path><path d="M306.3 303L251.5 402L332.3 365Z" fill="#b74f6c" stroke="#b74f6c"></path><path d="M332.3 365L353.3 415L381.1 336Z" fill="#d55f65" stroke="#d55f65"></path><path d="M409.1 411L400.1 455L499.9 458Z" fill="#4b355c" stroke="#4b355c"></path><path d="M251.5 402L353.3 415L332.3 365Z" fill="#b74f6c" stroke="#b74f6c"></path><path d="M742.4 322L788.2 218L720.4 197Z" fill="#2b2a49" stroke="#2b2a49"></path><path d="M353.3 415L400.1 455L409.1 411Z" fill="#2b2a49" stroke="#2b2a49"></path><path d="M619.5 405L721.4 403L692.5 338Z" fill="#2b2a49" stroke="#2b2a49"></path><path d="M742.4 322L796.2 322L788.2 218Z" fill="#f9904a" stroke="#f9904a"></path><path d="M621.5 471L721.4 403L619.5 405Z" fill="#121e33" stroke="#121e33"></path><path d="M608.7 557L621.5 471L499.9 458Z" fill="#2b2a49" stroke="#2b2a49"></path><path d="M499.9 458L621.5 471L541.7 410Z" fill="#94456e" stroke="#94456e"></path><path d="M425.1 0L325.3 0L398.1 99Z" fill="#fcaf3c" stroke="#fcaf3c"></path><path d="M315.3 101L260.5 87L259.5 196Z" fill="#b74f6c" stroke="#b74f6c"></path><path d="M274.5 0L260.5 87L315.3 101Z" fill="#b74f6c" stroke="#b74f6c"></path><path d="M788.2 218L783.2 97L718.4 180Z" fill="#6f3d69" stroke="#6f3d69"></path><path d="M733.4 100L765.4 0L635.5 57Z" fill="#00101c" stroke="#00101c"></path><path d="M400.1 455L464.9 499L499.9 458Z" fill="#b74f6c" stroke="#b74f6c"></path><path d="M766.4 414L796.2 322L742.4 322Z" fill="#4b355c" stroke="#4b355c"></path><path d="M788.2 218L846.2 135L783.2 97Z" fill="#eb7459" stroke="#eb7459"></path><path d="M177.6 217L222.5 294L259.5 196Z" fill="#121e33" stroke="#121e33"></path><path d="M259.5 196L222.5 294L306.3 303Z" fill="#f9904a" stroke="#f9904a"></path><path d="M260.5 87L215.5 155L259.5 196Z" fill="#2b2a49" stroke="#2b2a49"></path><path d="M294.3 503L406.1 505L400.1 455Z" fill="#6f3d69" stroke="#6f3d69"></path><path d="M400.1 455L406.1 505L464.9 499Z" fill="#d55f65" stroke="#d55f65"></path><path d="M294.3 503L400.1 455L353.3 415Z" fill="#121e33" stroke="#121e33"></path><path d="M764.4 497L766.4 414L721.4 403Z" fill="#2b2a49" stroke="#2b2a49"></path><path d="M721.4 403L766.4 414L742.4 322Z" fill="#94456e" stroke="#94456e"></path><path d="M325.3 0L274.5 0L315.3 101Z" fill="#b74f6c" stroke="#b74f6c"></path><path d="M147.6 35L139.6 179L215.5 155Z" fill="#d55f65" stroke="#d55f65"></path><path d="M783.2 97L765.4 0L733.4 100Z" fill="#f9904a" stroke="#f9904a"></path><path d="M222.5 294L251.5 402L306.3 303Z" fill="#94456e" stroke="#94456e"></path><path d="M900 231L846.2 135L788.2 218Z" fill="#6f3d69" stroke="#6f3d69"></path><path d="M783.2 97L823.2 0L765.4 0Z" fill="#121e33" stroke="#121e33"></path><path d="M766.4 414L823.2 404L796.2 322Z" fill="#f9904a" stroke="#f9904a"></path><path d="M796.2 322L900 231L788.2 218Z" fill="#fcaf3c" stroke="#fcaf3c"></path><path d="M764.4 497L783.2 423L766.4 414Z" fill="#f9904a" stroke="#f9904a"></path><path d="M215.5 155L177.6 217L259.5 196Z" fill="#2b2a49" stroke="#2b2a49"></path><path d="M222.5 294L164.6 386L251.5 402Z" fill="#121e33" stroke="#121e33"></path><path d="M139.6 179L177.6 217L215.5 155Z" fill="#f9904a" stroke="#f9904a"></path><path d="M526.9 600L608.7 557L499.9 458Z" fill="#6f3d69" stroke="#6f3d69"></path><path d="M621.5 471L764.4 497L721.4 403Z" fill="#f9904a" stroke="#f9904a"></path><path d="M526.9 600L499.9 458L464.9 499Z" fill="#00101c" stroke="#00101c"></path><path d="M900 463L823.2 404L783.2 423Z" fill="#00101c" stroke="#00101c"></path><path d="M783.2 423L823.2 404L766.4 414Z" fill="#b74f6c" stroke="#b74f6c"></path><path d="M251.5 402L294.3 503L353.3 415Z" fill="#00101c" stroke="#00101c"></path><path d="M379.1 600L526.9 600L464.9 499Z" fill="#fcaf3c" stroke="#fcaf3c"></path><path d="M900 92L823.2 0L783.2 97Z" fill="#b74f6c" stroke="#b74f6c"></path><path d="M608.7 557L661.5 559L621.5 471Z" fill="#94456e" stroke="#94456e"></path><path d="M661.5 559L764.4 497L621.5 471Z" fill="#eb7459" stroke="#eb7459"></path><path d="M169.6 429L254.5 485L251.5 402Z" fill="#2b2a49" stroke="#2b2a49"></path><path d="M251.5 402L254.5 485L294.3 503Z" fill="#94456e" stroke="#94456e"></path><path d="M147.6 35L215.5 155L260.5 87Z" fill="#4b355c" stroke="#4b355c"></path><path d="M177.6 217L141.6 279L222.5 294Z" fill="#d55f65" stroke="#d55f65"></path><path d="M900 338L900 231L796.2 322Z" fill="#121e33" stroke="#121e33"></path><path d="M846.2 135L900 92L783.2 97Z" fill="#fcaf3c" stroke="#fcaf3c"></path><path d="M105.8 199L141.6 279L177.6 217Z" fill="#00101c" stroke="#00101c"></path><path d="M379.1 600L464.9 499L406.1 505Z" fill="#f9904a" stroke="#f9904a"></path><path d="M608.7 557L637.5 600L661.5 559Z" fill="#6f3d69" stroke="#6f3d69"></path><path d="M526.9 600L570.7 600L608.7 557Z" fill="#fcaf3c" stroke="#fcaf3c"></path><path d="M900 231L900 118L846.2 135Z" fill="#d55f65" stroke="#d55f65"></path><path d="M141.6 279L164.6 386L222.5 294Z" fill="#6f3d69" stroke="#6f3d69"></path><path d="M900 118L900 92L846.2 135Z" fill="#121e33" stroke="#121e33"></path><path d="M900 385L900 338L823.2 404Z" fill="#121e33" stroke="#121e33"></path><path d="M823.2 404L900 338L796.2 322Z" fill="#fcaf3c" stroke="#fcaf3c"></path><path d="M570.7 600L637.5 600L608.7 557Z" fill="#94456e" stroke="#94456e"></path><path d="M661.5 559L779.2 531L764.4 497Z" fill="#00101c" stroke="#00101c"></path><path d="M274.5 0L172.6 0L260.5 87Z" fill="#00101c" stroke="#00101c"></path><path d="M172.6 0L147.6 35L260.5 87Z" fill="#fcaf3c" stroke="#fcaf3c"></path><path d="M100.8 438L169.6 429L164.6 386Z" fill="#f9904a" stroke="#f9904a"></path><path d="M164.6 386L169.6 429L251.5 402Z" fill="#4b355c" stroke="#4b355c"></path><path d="M770.4 600L779.2 531L661.5 559Z" fill="#2b2a49" stroke="#2b2a49"></path><path d="M764.4 497L900 463L783.2 423Z" fill="#00101c" stroke="#00101c"></path><path d="M334.3 600L379.1 600L406.1 505Z" fill="#6f3d69" stroke="#6f3d69"></path><path d="M334.3 600L406.1 505L294.3 503Z" fill="#2b2a49" stroke="#2b2a49"></path><path d="M257.5 543L294.3 503L254.5 485Z" fill="#2b2a49" stroke="#2b2a49"></path><path d="M41.8 134L105.8 199L139.6 179Z" fill="#b74f6c" stroke="#b74f6c"></path><path d="M139.6 179L105.8 199L177.6 217Z" fill="#2b2a49" stroke="#2b2a49"></path><path d="M141.6 279L109.8 311L164.6 386Z" fill="#94456e" stroke="#94456e"></path><path d="M900 463L900 385L823.2 404Z" fill="#f9904a" stroke="#f9904a"></path><path d="M105.8 199L109.8 311L141.6 279Z" fill="#94456e" stroke="#94456e"></path><path d="M174.6 504L257.5 543L254.5 485Z" fill="#fcaf3c" stroke="#fcaf3c"></path><path d="M257.5 543L334.3 600L294.3 503Z" fill="#2b2a49" stroke="#2b2a49"></path><path d="M900 92L900 0L823.2 0Z" fill="#121e33" stroke="#121e33"></path><path d="M169.6 429L174.6 504L254.5 485Z" fill="#00101c" stroke="#00101c"></path><path d="M257.5 543L235.5 600L334.3 600Z" fill="#00101c" stroke="#00101c"></path><path d="M100.8 438L174.6 504L169.6 429Z" fill="#f9904a" stroke="#f9904a"></path><path d="M900 496L900 463L764.4 497Z" fill="#4b355c" stroke="#4b355c"></path><path d="M0 256L78.8 341L109.8 311Z" fill="#00101c" stroke="#00101c"></path><path d="M109.8 311L78.8 341L164.6 386Z" fill="#94456e" stroke="#94456e"></path><path d="M637.5 600L770.4 600L661.5 559Z" fill="#4b355c" stroke="#4b355c"></path><path d="M779.2 531L900 496L764.4 497Z" fill="#f9904a" stroke="#f9904a"></path><path d="M770.4 600L789.2 600L779.2 531Z" fill="#6f3d69" stroke="#6f3d69"></path><path d="M900 600L900 496L779.2 531Z" fill="#00101c" stroke="#00101c"></path><path d="M78.8 341L100.8 438L164.6 386Z" fill="#d55f65" stroke="#d55f65"></path><path d="M150.6 600L235.5 600L174.6 504Z" fill="#6f3d69" stroke="#6f3d69"></path><path d="M174.6 504L235.5 600L257.5 543Z" fill="#94456e" stroke="#94456e"></path><path d="M52.8 82L41.8 134L139.6 179Z" fill="#f9904a" stroke="#f9904a"></path><path d="M105.8 199L0 256L109.8 311Z" fill="#d55f65" stroke="#d55f65"></path><path d="M52.8 82L139.6 179L147.6 35Z" fill="#fcaf3c" stroke="#fcaf3c"></path><path d="M45.8 0L52.8 82L147.6 35Z" fill="#121e33" stroke="#121e33"></path><path d="M172.6 0L45.8 0L147.6 35Z" fill="#2b2a49" stroke="#2b2a49"></path><path d="M0 76L0 179L41.8 134Z" fill="#eb7459" stroke="#eb7459"></path><path d="M0 76L41.8 134L52.8 82Z" fill="#fcaf3c" stroke="#fcaf3c"></path><path d="M41.8 134L0 179L105.8 199Z" fill="#f9904a" stroke="#f9904a"></path><path d="M78.8 341L0 441L100.8 438Z" fill="#eb7459" stroke="#eb7459"></path><path d="M0 179L0 256L105.8 199Z" fill="#4b355c" stroke="#4b355c"></path><path d="M0 256L0 317L78.8 341Z" fill="#00101c" stroke="#00101c"></path><path d="M83.8 546L150.6 600L174.6 504Z" fill="#00101c" stroke="#00101c"></path><path d="M83.8 546L174.6 504L100.8 438Z" fill="#2b2a49" stroke="#2b2a49"></path><path d="M45.8 0L0 76L52.8 82Z" fill="#f9904a" stroke="#f9904a"></path><path d="M0 317L0 353L78.8 341Z" fill="#2b2a49" stroke="#2b2a49"></path><path d="M789.2 600L900 600L779.2 531Z" fill="#00101c" stroke="#00101c"></path><path d="M0 441L83.8 546L100.8 438Z" fill="#eb7459" stroke="#eb7459"></path><path d="M45.8 0L0 0L0 76Z" fill="#4b355c" stroke="#4b355c"></path><path d="M0 353L0 441L78.8 341Z" fill="#00101c" stroke="#00101c"></path><path d="M0 532L61.8 600L83.8 546Z" fill="#00101c" stroke="#00101c"></path><path d="M83.8 546L61.8 600L150.6 600Z" fill="#eb7459" stroke="#eb7459"></path><path d="M0 441L0 532L83.8 546Z" fill="#f9904a" stroke="#f9904a"></path><path d="M0 532L0 600L61.8 600Z" fill="#121e33" stroke="#121e33"></path></g></svg>